<svg data-v-1084b650="" xmlns="http://www.w3.org/2000/svg" viewBox="0 0 300 300"><!----> <!----> <rect data-v-1084b650="" fill="#ffffff" x="0" y="0" width="300px" height="300px" class="logo-background-square"></rect> <!----> <g data-v-1084b650="" id="b33e8bc6-6e84-92e7-e723-1b6f833e69b9" fill="#000000" transform="matrix(1.6,0,0,1.6,69.86636950969695,128.47199821472168)"><path d="M0.78 12.05L0.78 12.05Q0.78 10.98 1.42 10.47L1.42 10.47L1.42 10.47Q2.06 9.97 3.43 9.97L3.43 9.97L3.43 9.97Q4.65 9.97 5.75 10.28L5.75 10.28L5.56 11.30L5.56 11.30Q5.21 11.20 4.73 11.14L4.73 11.14L4.73 11.14Q4.26 11.07 3.85 11.07L3.85 11.07L3.85 11.07Q3.01 11.07 2.25 11.20L2.25 11.20L2.25 12.85L2.25 12.85Q3.93 13.09 4.73 13.34L4.73 13.34L4.73 13.34Q5.52 13.58 5.81 13.99L5.81 13.99L5.81 13.99Q6.10 14.41 6.10 15.20L6.10 15.20L6.10 15.20Q6.10 16.00 5.82 16.48L5.82 16.48L5.82 16.48Q5.53 16.95 4.89 17.17L4.89 17.17L4.89 17.17Q4.24 17.39 3.16 17.39L3.16 17.39L3.16 17.39Q1.96 17.39 0.63 16.98L0.63 16.98L0.85 15.86L0.85 15.86Q1.93 16.28 3.15 16.28L3.15 16.28L3.15 16.28Q3.57 16.28 3.89 16.24L3.89 16.24L3.89 16.24Q4.21 16.20 4.63 16.09L4.63 16.09L4.63 14.43L4.63 14.43Q2.83 14.18 2.06 13.94L2.06 13.94L2.06 13.94Q1.29 13.71 1.04 13.31L1.04 13.31L1.04 13.31Q0.78 12.91 0.78 12.05L0.78 12.05ZM11.56 10.18L12.95 10.18L10.95 16.76L10.95 16.76Q10.61 17.86 10.23 18.48L10.23 18.48L10.23 18.48Q9.86 19.10 9.34 19.36L9.34 19.36L9.34 19.36Q8.82 19.63 8.04 19.63L8.04 19.63L8.04 19.63Q7.35 19.63 6.82 19.47L6.82 19.47L6.87 18.73L7.84 18.61L7.84 18.61Q8.39 18.54 8.67 18.40L8.67 18.40L8.67 18.40Q8.96 18.27 9.14 17.99L9.14 17.99L9.14 17.99Q9.32 17.71 9.48 17.18L9.48 17.18L9.60 16.76L8.82 16.76L6.82 10.18L8.20 10.18L9.81 15.57L9.95 15.57L11.56 10.18ZM14.29 17.18L14.29 10.18L14.94 10.18L15.32 10.88L15.32 10.88Q15.85 10.44 16.48 10.24L16.48 10.24L16.48 10.24Q17.11 10.04 17.92 10.04L17.92 10.04L17.92 10.04Q18.90 10.04 19.40 10.34L19.40 10.34L19.40 10.34Q19.91 10.64 19.91 11.23L19.91 11.23L19.91 17.18L18.51 17.18L18.51 11.19L16.88 11.19L16.88 11.19Q16.20 11.19 15.95 11.35L15.95 11.35L15.95 11.35Q15.69 11.52 15.69 12.00L15.69 12.00L15.69 17.18L14.29 17.18ZM24.46 17.32L24.46 17.32Q23.42 17.32 22.89 17.01L22.89 17.01L22.89 17.01Q22.36 16.70 22.15 15.94L22.15 15.94L22.15 15.94Q21.94 15.18 21.94 13.68L21.94 13.68L21.94 13.68Q21.94 12.18 22.15 11.41L22.15 11.41L22.15 11.41Q22.36 10.64 22.89 10.34L22.89 10.34L22.89 10.34Q23.42 10.04 24.46 10.04L24.46 10.04L24.46 10.04Q25.03 10.04 25.66 10.11L25.66 10.11L25.66 10.11Q26.28 10.18 26.73 10.29L26.73 10.29L26.56 11.35L26.56 11.35Q25.55 11.14 24.61 11.14L24.61 11.14L24.61 11.14Q23.93 11.14 23.66 11.40L23.66 11.40L23.66 11.40Q23.39 11.66 23.39 12.32L23.39 12.32L23.39 16.06L23.39 16.06Q23.90 16.21 24.82 16.21L24.82 16.21L24.82 16.21Q25.27 16.21 25.70 16.14L25.70 16.14L25.70 16.14Q26.12 16.06 26.73 15.88L26.73 15.88L26.88 16.90L26.88 16.90Q26.40 17.09 25.77 17.21L25.77 17.21L25.77 17.21Q25.13 17.32 24.46 17.32L24.46 17.32ZM32.05 10.04L32.05 10.04Q33.10 10.04 33.63 10.34L33.63 10.34L33.63 10.34Q34.16 10.64 34.36 11.40L34.36 11.40L34.36 11.40Q34.57 12.17 34.57 13.68L34.57 13.68L34.57 13.68Q34.57 15.20 34.36 15.98L34.36 15.98L34.36 15.98Q34.15 16.76 33.61 17.07L33.61 17.07L33.61 17.07Q33.08 17.39 32.05 17.39L32.05 17.39L32.05 17.39Q31.35 17.39 30.88 17.31L30.88 17.31L30.88 17.31Q30.42 17.23 30.10 17.05L30.10 17.05L30.10 19.49L28.70 19.66L28.70 10.18L29.34 10.18L29.67 10.77L29.67 10.77Q29.96 10.35 30.51 10.19L30.51 10.19L30.51 10.19Q31.05 10.04 32.05 10.04L32.05 10.04ZM33.10 15.89L33.10 11.19L30.74 11.19L30.74 11.19Q30.38 11.19 30.24 11.25L30.24 11.25L30.24 11.25Q30.10 11.31 30.10 11.47L30.10 11.47L30.10 16.24L32.45 16.24L32.45 16.24Q32.83 16.24 32.96 16.17L32.96 16.17L32.96 16.17Q33.10 16.10 33.10 15.89L33.10 15.89ZM36.51 17.18L36.51 17.18ZM36.67 10.28L38.07 10.07L38.07 17.18L36.67 17.18L36.67 10.28ZM37.38 8.96L37.38 8.96Q36.86 8.96 36.69 8.79L36.69 8.79L36.69 8.79Q36.51 8.61 36.51 8.12L36.51 8.12L36.51 8.12Q36.51 7.62 36.69 7.43L36.69 7.43L36.69 7.43Q36.88 7.25 37.38 7.25L37.38 7.25L37.38 7.25Q37.87 7.25 38.05 7.43L38.05 7.43L38.05 7.43Q38.22 7.62 38.22 8.12L38.22 8.12L38.22 8.12Q38.22 8.61 38.05 8.79L38.05 8.79L38.05 8.79Q37.88 8.96 37.38 8.96L37.38 8.96ZM43.93 10.04L43.93 10.04Q44.98 10.04 45.51 10.34L45.51 10.34L45.51 10.34Q46.05 10.64 46.25 11.40L46.25 11.40L46.25 11.40Q46.45 12.17 46.45 13.68L46.45 13.68L46.45 13.68Q46.45 15.20 46.24 15.98L46.24 15.98L46.24 15.98Q46.03 16.76 45.50 17.07L45.50 17.07L45.50 17.07Q44.97 17.39 43.93 17.39L43.93 17.39L43.93 17.39Q43.23 17.39 42.77 17.31L42.77 17.31L42.77 17.31Q42.31 17.23 41.99 17.05L41.99 17.05L41.99 19.49L40.59 19.66L40.59 10.18L41.23 10.18L41.55 10.77L41.55 10.77Q41.85 10.35 42.39 10.19L42.39 10.19L42.39 10.19Q42.94 10.04 43.93 10.04L43.93 10.04ZM44.98 15.89L44.98 11.19L42.63 11.19L42.63 11.19Q42.27 11.19 42.13 11.25L42.13 11.25L42.13 11.25Q41.99 11.31 41.99 11.47L41.99 11.47L41.99 16.24L44.34 16.24L44.34 16.24Q44.72 16.24 44.85 16.17L44.85 16.17L44.85 16.17Q44.98 16.10 44.98 15.89L44.98 15.89ZM51.10 16.21L51.10 16.21Q51.67 16.21 52.22 16.14L52.22 16.14L52.22 16.14Q52.77 16.06 53.52 15.88L53.52 15.88L53.70 16.90L53.70 16.90Q53.19 17.09 52.42 17.21L52.42 17.21L52.42 17.21Q51.66 17.32 50.85 17.32L50.85 17.32L50.85 17.32Q49.76 17.32 49.18 17.00L49.18 17.00L49.18 17.00Q48.61 16.69 48.37 15.92L48.37 15.92L48.37 15.92Q48.13 15.15 48.13 13.68L48.13 13.68L48.13 13.68Q48.13 12.26 48.41 11.49L48.41 11.49L48.41 11.49Q48.68 10.71 49.31 10.37L49.31 10.37L49.31 10.37Q49.94 10.04 51.09 10.04L51.09 10.04L51.09 10.04Q52.22 10.04 52.81 10.22L52.81 10.22L52.81 10.22Q53.41 10.40 53.65 10.84L53.65 10.84L53.65 10.84Q53.89 11.28 53.89 12.14L53.89 12.14L53.89 12.14Q53.89 13.16 53.59 13.61L53.59 13.61L53.59 13.61Q53.30 14.06 52.44 14.21L52.44 14.21L52.44 14.21Q51.58 14.36 49.60 14.36L49.60 14.36L49.60 16.06L49.60 16.06Q50.16 16.21 51.10 16.21L51.10 16.21ZM50.76 11.19L50.76 11.19Q50.09 11.19 49.85 11.35L49.85 11.35L49.85 11.35Q49.60 11.52 49.60 12.00L49.60 12.00L49.60 13.45L51.45 13.45L51.45 13.45Q52.14 13.45 52.38 13.29L52.38 13.29L52.38 13.29Q52.63 13.12 52.63 12.64L52.63 12.64L52.63 11.19L50.76 11.19ZM55.65 12.05L55.65 12.05Q55.65 10.98 56.29 10.47L56.29 10.47L56.29 10.47Q56.92 9.97 58.30 9.97L58.30 9.97L58.30 9.97Q59.51 9.97 60.62 10.28L60.62 10.28L60.42 11.30L60.42 11.30Q60.07 11.20 59.60 11.14L59.60 11.14L59.60 11.14Q59.12 11.07 58.72 11.07L58.72 11.07L58.72 11.07Q57.88 11.07 57.12 11.20L57.12 11.20L57.12 12.85L57.12 12.85Q58.80 13.09 59.59 13.34L59.59 13.34L59.59 13.34Q60.38 13.58 60.68 13.99L60.68 13.99L60.68 13.99Q60.97 14.41 60.97 15.20L60.97 15.20L60.97 15.20Q60.97 16.00 60.68 16.48L60.68 16.48L60.68 16.48Q60.40 16.95 59.75 17.17L59.75 17.17L59.75 17.17Q59.11 17.39 58.03 17.39L58.03 17.39L58.03 17.39Q56.83 17.39 55.50 16.98L55.50 16.98L55.72 15.86L55.72 15.86Q56.80 16.28 58.02 16.28L58.02 16.28L58.02 16.28Q58.44 16.28 58.76 16.24L58.76 16.24L58.76 16.24Q59.08 16.20 59.50 16.09L59.50 16.09L59.50 14.43L59.50 14.43Q57.69 14.18 56.92 13.94L56.92 13.94L56.92 13.94Q56.15 13.71 55.90 13.31L55.90 13.31L55.90 13.31Q55.65 12.91 55.65 12.05L55.65 12.05ZM62.06 13.22L62.06 13.22Q62.06 12.91 62.22 12.82L62.22 12.82L62.22 12.82Q62.37 12.74 62.78 12.74L62.78 12.74L66.04 12.74L66.04 13.44L66.04 13.44Q66.04 13.75 65.88 13.83L65.88 13.83L65.88 13.83Q65.73 13.92 65.32 13.92L65.32 13.92L62.06 13.92L62.06 13.22ZM70.36 10.04L70.36 10.04Q71.33 10.04 71.89 10.23L71.89 10.23L71.89 10.23Q72.45 10.42 72.69 10.84L72.69 10.84L72.69 10.84Q72.94 11.27 72.94 12.00L72.94 12.00L72.94 17.18L72.30 17.18L71.92 16.48L71.92 16.48Q71.41 16.91 70.81 17.12L70.81 17.12L70.81 17.12Q70.20 17.32 69.41 17.32L69.41 17.32L69.41 17.32Q68.25 17.32 67.76 16.84L67.76 16.84L67.76 16.84Q67.27 16.35 67.27 15.22L67.27 15.22L67.27 15.22Q67.27 14.20 67.55 13.75L67.55 13.75L67.55 13.75Q67.83 13.30 68.65 13.15L68.65 13.15L68.65 13.15Q69.47 12.99 71.33 12.99L71.33 12.99L71.54 12.99L71.54 11.30L71.54 11.30Q71.02 11.14 70.13 11.14L70.13 11.14L70.13 11.14Q69.01 11.14 67.76 11.48L67.76 11.48L67.58 10.46L67.58 10.46Q68.10 10.28 68.87 10.16L68.87 10.16L68.87 10.16Q69.64 10.04 70.36 10.04L70.36 10.04ZM70.42 16.24L70.42 16.24Q71.08 16.24 71.31 16.07L71.31 16.07L71.31 16.07Q71.54 15.90 71.54 15.43L71.54 15.43L71.54 13.90L69.68 13.90L69.68 13.90Q69.02 13.90 68.78 14.07L68.78 14.07L68.78 14.07Q68.54 14.24 68.54 14.71L68.54 14.71L68.54 16.24L70.42 16.24ZM80.93 10.18L80.93 17.18L80.29 17.18L79.91 16.48L79.91 16.48Q79.35 16.91 78.69 17.12L78.69 17.12L78.69 17.12Q78.02 17.32 77.17 17.32L77.17 17.32L77.17 17.32Q76.22 17.32 75.77 16.96L75.77 16.96L75.77 16.96Q75.32 16.60 75.32 15.85L75.32 15.85L75.32 10.18L76.72 10.18L76.72 16.24L78.34 16.24L78.34 16.24Q79.03 16.24 79.28 16.07L79.28 16.07L79.28 16.07Q79.53 15.90 79.53 15.43L79.53 15.43L79.53 10.18L80.93 10.18ZM86.52 11.14L85.27 11.14L85.27 16.14L85.27 16.14Q85.78 16.20 86.27 16.21L86.27 16.21L86.18 17.16L86.18 17.16Q85.40 17.32 84.91 17.32L84.91 17.32L84.91 17.32Q84.38 17.32 84.13 17.06L84.13 17.06L84.13 17.06Q83.87 16.80 83.87 16.27L83.87 16.27L83.87 11.14L82.89 11.14L82.89 10.18L83.87 10.18L83.87 8.68L85.27 8.33L85.27 10.18L86.52 10.18L86.52 11.14ZM91.03 17.32L91.03 17.32Q89.77 17.32 89.13 17.02L89.13 17.02L89.13 17.02Q88.49 16.72 88.24 15.95L88.24 15.95L88.24 15.95Q87.99 15.18 87.99 13.68L87.99 13.68L87.99 13.68Q87.99 12.18 88.24 11.41L88.24 11.41L88.24 11.41Q88.49 10.64 89.13 10.34L89.13 10.34L89.13 10.34Q89.77 10.04 91.03 10.04L91.03 10.04L91.03 10.04Q92.30 10.04 92.93 10.34L92.93 10.34L92.93 10.34Q93.56 10.64 93.81 11.40L93.81 11.40L93.81 11.40Q94.07 12.17 94.07 13.68L94.07 13.68L94.07 13.68Q94.07 15.18 93.81 15.95L93.81 15.95L93.81 15.95Q93.56 16.72 92.92 17.02L92.92 17.02L92.92 17.02Q92.29 17.32 91.03 17.32L91.03 17.32ZM89.45 16.17L91.94 16.17L91.94 16.17Q92.34 16.17 92.48 16.10L92.48 16.10L92.48 16.10Q92.61 16.03 92.61 15.82L92.61 15.82L92.61 11.19L90.12 11.19L90.12 11.19Q89.71 11.19 89.58 11.26L89.58 11.26L89.58 11.26Q89.45 11.33 89.45 11.54L89.45 11.54L89.45 16.17ZM95.37 13.22L95.37 13.22Q95.37 12.91 95.52 12.82L95.52 12.82L95.52 12.82Q95.68 12.74 96.08 12.74L96.08 12.74L99.34 12.74L99.34 13.44L99.34 13.44Q99.34 13.75 99.19 13.83L99.19 13.83L99.19 13.83Q99.04 13.92 98.63 13.92L98.63 13.92L95.37 13.92L95.37 13.22ZM103.17 17.32L103.17 17.32Q102.13 17.32 101.60 17.01L101.60 17.01L101.60 17.01Q101.07 16.70 100.86 15.94L100.86 15.94L100.86 15.94Q100.65 15.18 100.65 13.68L100.65 13.68L100.65 13.68Q100.65 12.18 100.86 11.41L100.86 11.41L100.86 11.41Q101.07 10.64 101.60 10.34L101.60 10.34L101.60 10.34Q102.13 10.04 103.17 10.04L103.17 10.04L103.17 10.04Q103.74 10.04 104.36 10.11L104.36 10.11L104.36 10.11Q104.99 10.18 105.43 10.29L105.43 10.29L105.27 11.35L105.27 11.35Q104.26 11.14 103.32 11.14L103.32 11.14L103.32 11.14Q102.63 11.14 102.37 11.40L102.37 11.40L102.37 11.40Q102.10 11.66 102.10 12.32L102.10 12.32L102.10 16.06L102.10 16.06Q102.61 16.21 103.53 16.21L103.53 16.21L103.53 16.21Q103.98 16.21 104.41 16.14L104.41 16.14L104.41 16.14Q104.83 16.06 105.43 15.88L105.43 15.88L105.59 16.90L105.59 16.90Q105.11 17.09 104.47 17.21L104.47 17.21L104.47 17.21Q103.84 17.32 103.17 17.32L103.17 17.32ZM108.74 16.14L108.74 16.14Q109.02 16.18 109.38 16.21L109.38 16.21L109.30 17.16L109.30 17.16Q108.78 17.32 108.37 17.32L108.37 17.32L108.37 17.32Q107.84 17.32 107.59 17.06L107.59 17.06L107.59 17.06Q107.34 16.80 107.34 16.27L107.34 16.27L107.34 8.08L108.74 7.87L108.74 16.14ZM111.05 17.18L111.05 17.18ZM111.20 10.28L112.60 10.07L112.60 17.18L111.20 17.18L111.20 10.28ZM111.92 8.96L111.92 8.96Q111.40 8.96 111.22 8.79L111.22 8.79L111.22 8.79Q111.05 8.61 111.05 8.12L111.05 8.12L111.05 8.12Q111.05 7.62 111.23 7.43L111.23 7.43L111.23 7.43Q111.41 7.25 111.92 7.25L111.92 7.25L111.92 7.25Q112.41 7.25 112.58 7.43L112.58 7.43L112.58 7.43Q112.76 7.62 112.76 8.12L112.76 8.12L112.76 8.12Q112.76 8.61 112.59 8.79L112.59 8.79L112.59 8.79Q112.42 8.96 111.92 8.96L111.92 8.96ZM117.67 16.21L117.67 16.21Q118.24 16.21 118.79 16.14L118.79 16.14L118.79 16.14Q119.34 16.06 120.09 15.88L120.09 15.88L120.27 16.90L120.27 16.90Q119.76 17.09 118.99 17.21L118.99 17.21L118.99 17.21Q118.23 17.32 117.42 17.32L117.42 17.32L117.42 17.32Q116.33 17.32 115.75 17.00L115.75 17.00L115.75 17.00Q115.18 16.69 114.94 15.92L114.94 15.92L114.94 15.92Q114.70 15.15 114.70 13.68L114.70 13.68L114.70 13.68Q114.70 12.26 114.97 11.49L114.97 11.49L114.97 11.49Q115.25 10.71 115.88 10.37L115.88 10.37L115.88 10.37Q116.51 10.04 117.66 10.04L117.66 10.04L117.66 10.04Q118.79 10.04 119.38 10.22L119.38 10.22L119.38 10.22Q119.98 10.40 120.22 10.84L120.22 10.84L120.22 10.84Q120.46 11.28 120.46 12.14L120.46 12.14L120.46 12.14Q120.46 13.16 120.16 13.61L120.16 13.61L120.16 13.61Q119.87 14.06 119.01 14.21L119.01 14.21L119.01 14.21Q118.15 14.36 116.17 14.36L116.17 14.36L116.17 16.06L116.17 16.06Q116.73 16.21 117.67 16.21L117.67 16.21ZM117.33 11.19L117.33 11.19Q116.66 11.19 116.42 11.35L116.42 11.35L116.42 11.35Q116.17 11.52 116.17 12.00L116.17 12.00L116.17 13.45L118.02 13.45L118.02 13.45Q118.71 13.45 118.95 13.29L118.95 13.29L118.95 13.29Q119.20 13.12 119.20 12.64L119.20 12.64L119.20 11.19L117.33 11.19ZM122.70 17.18L122.70 10.18L123.34 10.18L123.72 10.88L123.72 10.88Q124.25 10.44 124.88 10.24L124.88 10.24L124.88 10.24Q125.51 10.04 126.32 10.04L126.32 10.04L126.32 10.04Q127.30 10.04 127.81 10.34L127.81 10.34L127.81 10.34Q128.31 10.64 128.31 11.23L128.31 11.23L128.31 17.18L126.91 17.18L126.91 11.19L125.29 11.19L125.29 11.19Q124.60 11.19 124.35 11.35L124.35 11.35L124.35 11.35Q124.10 11.52 124.10 12.00L124.10 12.00L124.10 17.18L122.70 17.18ZM133.83 11.14L132.58 11.14L132.58 16.14L132.58 16.14Q133.08 16.20 133.57 16.21L133.57 16.21L133.49 17.16L133.49 17.16Q132.71 17.32 132.22 17.32L132.22 17.32L132.22 17.32Q131.68 17.32 131.43 17.06L131.43 17.06L131.43 17.06Q131.18 16.80 131.18 16.27L131.18 16.27L131.18 11.14L130.20 11.14L130.20 10.18L131.18 10.18L131.18 8.68L132.58 8.33L132.58 10.18L133.83 10.18L133.83 11.14Z"></path></g> <linearGradient data-v-1084b650="" gradientTransform="rotate(25)" id="8459a26e-87f8-f307-053b-cd1fd283830a" x1="0%" y1="0%" x2="100%" y2="0%"><stop data-v-1084b650="" offset="0%" style="stop-color: rgb(4, 24, 4); stop-opacity: 1;"></stop> <stop data-v-1084b650="" offset="100%" style="stop-color: rgb(111, 210, 196); stop-opacity: 1;"></stop></linearGradient> <g data-v-1084b650="" id="f483a163-7ccb-d751-ca92-eaf384caa8f5" fill="url(#8459a26e-87f8-f307-053b-cd1fd283830a)" stroke="none" transform="matrix(0.09927998868001418,0,0,0.09927998868001418,39.5437415934542,135.10800018310545)"><svg xmlns="http://www.w3.org/2000/svg" viewBox="0 0 100 100"><path d="M85.102 75.82s8.129-2.684 5.751-14.886v-.007a.642.642 0 0 0-.005-.037l-.007-.002a1.285 1.285 0 0 0-2.535.304c0 .026.007.051.008.078l-.006.002s-1.402 14.548-13.434 7.625c.001 0 3.51 7.826 10.228 6.923zM14.9 75.82c6.717.903 10.225-6.923 10.225-6.923-12.03 6.923-13.433-7.625-13.433-7.625-.001-.002-.003-.002-.005-.002.002-.027.009-.052.009-.078a1.285 1.285 0 1 0-2.536-.304l-.005.002-.008.037v.007C6.769 73.136 14.9 75.82 14.9 75.82zM15.657 89.886c-.251.015-.502.031-.756.031-4.332 0-8.334-2.136-11.596-5.747a.972.972 0 0 0-1.768.555c0 .156.041.3.105.432l-.001-.002c2.412 6.903 9.585 11.912 18.067 11.912.252 0 .502-.016.753-.023-1.752-1.648-3.45-3.951-4.804-7.158zM98.337 85.386a.96.96 0 0 0 .127-.469.97.97 0 0 0-1.778-.541v-.002c-3.23 3.487-7.161 5.543-11.411 5.543-.383 0-.758-.021-1.134-.056-1.354 3.212-3.05 5.521-4.8 7.17.346.016.694.035 1.042.035 8.379 0 15.481-4.891 17.974-11.667l-.019-.014h-.001z"></path><path d="M96.962 69.544c0-.854-.691-1.544-1.542-1.544-.603 0-1.12.349-1.373.853l-.004-.002c-2.438 5.061-6.066 8.273-10.122 8.273-7.186 0-13.033-10.08-13.281-22.676a7.628 7.628 0 0 0 1.59-11.968c.29-.942.605-1.854.964-2.714a26.542 26.542 0 0 0 3.454-13.123C76.648 11.929 64.728 0 50.026 0 35.323 0 23.404 11.929 23.404 26.644c0 4.697 1.219 9.109 3.352 12.941.383.909.727 1.872 1.034 2.876a7.633 7.633 0 0 0 1.586 11.997c-.25 12.592-6.098 22.666-13.281 22.666-4.011 0-7.604-3.143-10.041-8.107-.058-.117-.117-.234-.174-.353a1.52 1.52 0 0 0-2.775.857c0 .171.035.33.086.482.022.059.05.113.068.173 2.676 8.927 7.176 11.76 10.303 12.368-.045-.251-.092-.504-.134-.765l-.054-.345.024-.028c-.034-1.098.542-2.036 1.46-2.332.192-.063.392-.096.594-.096.978 0 1.907.731 2.297 1.797l.01.005.072.257c.006.021.388 1.345 1.179 2.977.231.015.461.033.695.033 3.585 0 6.936-1.447 9.794-3.958-2.121 3.534-4.785 6.28-7.783 7.964 1.525 1.544 3.583 2.437 5.778 2.437 3.027 0 5.782-1.7 7.18-4.33h.001c1.798-3.637 2.761-9.605 2.761-9.605-.098 1.752.166 5.048-1.146 8.92l-.023.063a9.363 9.363 0 0 1-8.773 6.156 9.314 9.314 0 0 1-7.375-3.617 9.308 9.308 0 0 1-.411-.567 14.85 14.85 0 0 1-.63-.905c-.015-.022-.028-.046-.042-.067a18.725 18.725 0 0 1-.516-.857c-.016-.028-.029-.053-.045-.079a23.408 23.408 0 0 1-.446-.843c-.008-.019-.017-.035-.026-.054a22.442 22.442 0 0 1-1.195-2.903h-.03l-.134-.534c-.233-.727-.885-1.221-1.417-1.046-.431.138-.69.693-.615 1.318l.006.078h.002c.084.524.177 1.029.274 1.522.107.546.226 1.068.349 1.579.035.144.069.288.106.43.051.199.103.396.156.593l.128.448c.059.201.118.403.179.6.081.262.165.521.25.771.052.153.105.299.159.446.058.164.116.324.175.479.055.143.109.285.164.423.067.168.136.334.206.496.049.119.098.238.148.353 1.49 3.379 3.374 5.646 5.246 7.164a17.379 17.379 0 0 0 .943.703 14.482 14.482 0 0 0 1.768 1.041 13.5 13.5 0 0 0 1.554.654c.025.01.052.021.079.028a15.244 15.244 0 0 0 .765.236c.207.058.406.108.593.151.028.006.055.011.082.018.192.042.377.078.546.106l.148.025.045.008a8.672 8.672 0 0 0 1.157.107l.089-.017.261.002c4.042 0 13.92-1.798 19.497-18.141l.206-.589.205.589c5.575 16.343 15.455 18.141 19.495 18.141l.262-.002.091.018c.136-.002.55-.015 1.157-.107l.046-.008.147-.025a8.86 8.86 0 0 0 .551-.108l.078-.016c.192-.046.395-.096.604-.155l.093-.025c.218-.062.443-.134.677-.213.021-.009.042-.015.064-.022.757-.266 1.59-.634 2.457-1.146.017-.009.033-.02.05-.027.281-.169.568-.352.857-.551.017-.013.031-.025.05-.036a15.1 15.1 0 0 0 .887-.671c1.872-1.525 3.756-3.803 5.239-7.197a28.66 28.66 0 0 0 .688-1.75c.043-.123.088-.245.132-.372.087-.257.172-.521.256-.792.064-.201.123-.407.183-.615a32.509 32.509 0 0 0 .282-1.031c.021-.084.04-.168.062-.25.129-.525.25-1.065.363-1.628.107-.528.209-1.07.298-1.636l.006-.078c.077-.625-.183-1.181-.615-1.318-.531-.175-1.184.319-1.415 1.046l-.134.534h-.031a22.15 22.15 0 0 1-.819 2.112l-.002.003c-.12.265-.25.54-.391.825-.009.019-.019.037-.027.056-.135.27-.284.547-.439.828-.017.026-.032.053-.046.078-.159.282-.328.566-.512.848-.015.021-.027.044-.04.065-.196.302-.401.602-.624.894a9.003 9.003 0 0 1-.378.53 9.324 9.324 0 0 1-7.406 3.655 9.361 9.361 0 0 1-8.773-6.156l-.024-.063c-1.142-2.622-1.047-7.168-1.146-8.92 0 0 .965 5.969 2.761 9.605h.002a8.153 8.153 0 0 0 7.181 4.33c2.26 0 4.377-.943 5.914-2.575-2.855-1.671-5.396-4.313-7.443-7.681 2.82 2.42 6.106 3.813 9.62 3.813.128 0 .255-.013.384-.017.798-1.64 1.183-2.972 1.188-2.993l.072-.257.008-.005c.391-1.065 1.319-1.797 2.296-1.797.204 0 .403.032.597.096.919.296 1.492 1.234 1.46 2.332l.023.028-.055.345c-.05.314-.105.615-.161.92 5.092-1.181 9.156-6.809 10.634-12.524l-.006-.003c.086-.195.136-.406.136-.631zM34.926 51.859a2.874 2.874 0 1 1 .001-5.747 2.874 2.874 0 0 1-.001 5.747zm30.151 0a2.873 2.873 0 0 1-2.872-2.875 2.873 2.873 0 1 1 5.743 0 2.873 2.873 0 0 1-2.871 2.875z"></path></svg></g></svg>